<?xml version="1.0" encoding="UTF-8" standalone="no"?>
<!-- Created with Inkscape (http://www.inkscape.org/) -->

<svg
   width="16"
   height="16"
   viewBox="0 0 4.2333333 4.2333333"
   version="1.1"
   id="svg5"
   inkscape:version="1.1 (ce6663b3b7, 2021-05-25)"
   sodipodi:docname="pbj-sandbox-logo.svg"
   xmlns:inkscape="http://www.inkscape.org/namespaces/inkscape"
   xmlns:sodipodi="http://sodipodi.sourceforge.net/DTD/sodipodi-0.dtd"
   xmlns:xlink="http://www.w3.org/1999/xlink"
   xmlns="http://www.w3.org/2000/svg"
   xmlns:svg="http://www.w3.org/2000/svg">
  <sodipodi:namedview
     id="namedview7"
     pagecolor="#ffffff"
     bordercolor="#666666"
     borderopacity="1.0"
     inkscape:pageshadow="2"
     inkscape:pageopacity="0.0"
     inkscape:pagecheckerboard="0"
     inkscape:document-units="px"
     showgrid="true"
     inkscape:zoom="38.56383"
     inkscape:cx="3.4488276"
     inkscape:cy="6.5475862"
     inkscape:window-width="1920"
     inkscape:window-height="1016"
     inkscape:window-x="0"
     inkscape:window-y="0"
     inkscape:window-maximized="1"
     inkscape:current-layer="g37707"
     inkscape:object-paths="false"
     inkscape:snap-smooth-nodes="true"
     showguides="true"
     inkscape:guide-bbox="true">
    <inkscape:grid
       type="xygrid"
       id="grid824"
       empspacing="2"
       spacingx="0.13229167"
       spacingy="0.13229167" />
    <sodipodi:guide
       position="2.1166667,4.4979166"
       orientation="1,0"
       id="guide17019" />
    <sodipodi:guide
       position="-1.190625,2.1166666"
       orientation="0,-1"
       id="guide17021" />
  </sodipodi:namedview>
  <defs
     id="defs2" />
  <g
     inkscape:label="Layer 1"
     inkscape:groupmode="layer"
     id="layer1">
    <use
       x="0"
       y="0"
       xlink:href="#g17145"
       id="use17147"
       transform="translate(-5e-8,0.92604169)"
       width="100%"
       height="100%" />
    <g
       id="g37707">
      <path
         id="rect1172"
         style="fill:#ff03a4;stroke:#ac00a4;stroke-width:0.264583;stroke-linecap:round;stroke-linejoin:round;stop-color:#000000;fill-opacity:1;stroke-opacity:1"
         d="M 0.28780612,3.0131852 C 0.90888621,3.0136079 3.8419828,2.8701159 4.0142872,3.0144552 4.1865916,3.1587945 4.1085551,3.3420601 4.1010418,3.7041668 4.0935285,4.0662734 3.5702562,4.1869743 3.5303656,3.6058119 3.490475,3.0246495 3.2852785,3.9907635 3.1750001,4.1010418 2.8779738,3.9386939 2.8353658,3.7565151 2.5135417,3.7041668 2.4469577,4.1101596 2.2311859,4.0921144 2.1166667,3.9687501 2.0294061,3.8747498 2.0415852,3.7041668 1.9843751,3.7041668 1.7412999,3.7041669 1.8017469,4.0296262 1.5875,4.1010418 1.3732531,4.1724574 1.0910556,3.6937228 0.92604169,3.7041668 0.76102783,3.7146107 0.6622454,3.950918 0.49238814,3.8871345 0.32253088,3.823351 0.21912083,3.6227199 0.17110828,3.4679653 c -0.0480126,-0.1547546 0.007818,-0.3884914 0.0709293,-0.4403237 0.0631109,-0.051832 0.0138702,-0.00719 0.02154,-0.00963 0.00767,-0.00244 -0.59685155,-0.00525 0.0242285,-0.00483 z"
         sodipodi:nodetypes="zzzzccsszzzzzzzz" />
      <path
         style="fill:none;fill-opacity:1;stroke:#ff5da7;stroke-width:0.264583;stroke-linecap:round;stroke-linejoin:round;stroke-opacity:1;stop-color:#000000"
         d="m 1.984375,3.5718751 c 0,0 0,0.1322917 0.1322917,0.2645833"
         id="path36618-62"
         sodipodi:nodetypes="cc" />
      <path
         style="fill:none;fill-opacity:1;stroke:#ff8095;stroke-width:0.264583;stroke-linecap:round;stroke-linejoin:round;stroke-opacity:1;stop-color:#000000"
         d="m 3.5718751,3.5718751 c 0,0 0,0.1322917 0.1322917,0.2645833"
         id="path36618-62-6"
         sodipodi:nodetypes="cc" />
    </g>
    <g
       id="g37342">
      <path
         id="rect1172-6"
         style="fill:#ff9e55;stroke:#ff7a00;stroke-width:0.264583;stroke-linecap:round;stroke-linejoin:round;stop-color:#000000;stroke-opacity:1;fill-opacity:1"
         d="M 0.66145835,2.2489584 C 1.866531,1.9476902 2.7265915,2.5105817 3.9687501,2.5135417 4.1693289,2.6861555 4.1609913,3.1521611 4.0202984,3.3446594 3.9224604,3.5048094 3.6354996,3.5346853 3.5071426,3.3707514 3.3533487,3.2875444 3.2654196,3.637939 3.1842773,3.7327933 2.9904134,3.9187421 2.8212014,3.495714 2.6458334,3.4395834 2.360533,3.3209729 2.0074229,3.1459522 1.7197917,3.3072918 1.5970832,3.4041984 1.500598,3.8977741 1.2996939,3.7336899 1.1636093,3.6587171 1.0952029,3.1834656 0.92604169,3.1750001 0.76739369,3.2042131 0.64657083,3.696802 0.4691653,3.6520743 0.3090303,3.5700513 0.2050277,3.3996215 0.1478855,3.2329051 0.109052,3.0902715 0.092593,2.8962459 0.2188148,2.7925814 L 0.13229167,2.3812501 Z"
         sodipodi:nodetypes="sssssccccccccs" />
      <path
         style="opacity:1;fill:none;fill-opacity:1;stroke:#ffccaa;stroke-width:0.264583;stroke-linecap:round;stroke-linejoin:round;stroke-opacity:1;stop-color:#000000"
         d="M 1.190625,3.3072918 1.3229167,3.5718751"
         id="path36618"
         sodipodi:nodetypes="cc" />
      <path
         style="fill:none;fill-opacity:1;stroke:#ffccaa;stroke-width:0.264583;stroke-linecap:round;stroke-linejoin:round;stroke-opacity:1;stop-color:#000000"
         d="M 0.26458334,3.1750001 0.39687501,3.4395834"
         id="path36618-6"
         sodipodi:nodetypes="cc" />
      <path
         style="fill:none;fill-opacity:1;stroke:#ffccaa;stroke-width:0.264583;stroke-linecap:round;stroke-linejoin:round;stroke-opacity:1;stop-color:#000000"
         d="M 2.778125,3.3072918 2.9104167,3.5718751"
         id="path36618-0"
         sodipodi:nodetypes="cc" />
    </g>
    <path
       style="fill:#ff0000;fill-opacity:1;stroke:#d40000;stroke-width:0.264583;stroke-linecap:round;stroke-linejoin:round;stroke-opacity:1;stop-color:#000000"
       d="m 2.1166667,0.13229167 1.5875001,1.05833333 -1.5875,1e-7 z"
       id="path3845"
       sodipodi:nodetypes="cccc" />
    <path
       style="fill:#ffccaa;fill-opacity:1;stroke:#803300;stroke-width:0.264583;stroke-linecap:round;stroke-linejoin:round;stroke-opacity:1;stop-color:#000000"
       d="M 6.2177085,2.2489583 V 0.39687503 c 0,0 -0.396875,-0.1322917 -0.396875,-0.5291667 0,-0.26458328 0.2645833,-0.52916665 0.79375,-0.52916665 0.5291667,0 0.79375,0.52916665 0.79375,0.52916665 0,0 0.396875,-0.52916665 0.9260417,-0.52916665 0.5291667,0 0.6614584,0.26458326 0.6614584,0.52916665 0,0.396875 -0.396875,0.5291667 -0.396875,0.5291667 V 2.2489584 Z"
       id="path7791"
       sodipodi:nodetypes="ccsscssccc" />
    <path
       style="fill:#ffccaa;fill-opacity:1;stroke:#803300;stroke-width:0.264583;stroke-linecap:round;stroke-linejoin:round;stroke-opacity:1;stop-color:#000000"
       d="M 4.4979167,7.0114585 V 5.9825233 c 0,0 -0.396875,-0.073495 -0.396875,-0.2939815 0,-0.1469907 0.2645833,-0.2939815 0.79375,-0.2939815 0.5291667,0 0.79375,0.2939815 0.79375,0.2939815 0,0 0.396875,-0.2939815 0.9260417,-0.2939815 0.5291667,0 0.6614584,0.1469907 0.6614584,0.2939815 0,0.2204861 -0.396875,0.2939815 -0.396875,0.2939815 v 1.0289353 z"
       id="path7791-5"
       sodipodi:nodetypes="ccsscssccc"
       inkscape:transform-center-x="1.1742272"
       inkscape:transform-center-y="-0.77377547" />
    <g
       id="g17145">
      <use
         x="0"
         y="0"
         xlink:href="#path7791-5-5"
         inkscape:transform-center-x="1.1742272"
         inkscape:transform-center-y="-0.77377547"
         id="use17141"
         transform="translate(5e-8,0.13229168)"
         width="100%"
         height="100%" />
      <path
         style="fill:#ffccaa;fill-opacity:1;stroke:#803300;stroke-width:0.264583;stroke-linecap:round;stroke-linejoin:round;stroke-opacity:1;stop-color:#000000"
         d="m 0.26458334,3.0427084 c -0.26458334,0 -0.13229169,-0.2645833 0,-0.396875 0.26458334,-0.2645833 0.52916663,-0.396875 0.52916663,-0.396875 0,0 -0.66145835,0 -0.66145835,-0.396875 0,-0.2645834 0.39687491,-0.396875 0.92604178,-0.396875 0.5291667,0 1.0583333,0.396875 1.0583333,0.396875 0,0 0.5291667,-0.396875 1.0583334,-0.396875 0.5291667,0 0.9260417,0.1322916 0.9260417,0.396875 -1e-7,0.396875 -0.6614583,0.396875 -0.6614583,0.396875 0,0 0.3086805,0.1763889 0.5291666,0.396875 0.1322916,0.1322917 0.2645834,0.396875 0,0.396875 z"
         id="path7791-5-5"
         sodipodi:nodetypes="cscsscsscscc"
         inkscape:transform-center-x="1.1742272"
         inkscape:transform-center-y="-0.77377547" />
    </g>
    <path
       style="fill:#ffccaa;fill-opacity:1;stroke:#803300;stroke-width:0.264583;stroke-linecap:round;stroke-linejoin:round;stroke-opacity:1;stop-color:#000000"
       d="M 7.5017159,4.9976853 8.2020835,3.9687501 c 0,0 -0.346849,-0.073495 -0.1967699,-0.2939815 0.1000525,-0.1469907 0.4646883,-0.2939815 0.993855,-0.2939815 0.5291667,0 0.593645,0.2939815 0.593645,0.2939815 0,0 0.5969804,-0.2939815 1.1261474,-0.2939815 0.529166,0 0.561406,0.1469907 0.461353,0.2939815 -0.150079,0.2204861 -0.59698,0.2939815 -0.59698,0.2939815 L 9.8829659,4.9976854 Z"
       id="path7791-5-3"
       sodipodi:nodetypes="ccsscssccc"
       inkscape:transform-center-x="0.52668135"
       inkscape:transform-center-y="-0.77377547" />
    <path
       style="fill:none;fill-opacity:1;stroke:#f4e3d7;stroke-width:0.264583;stroke-linecap:round;stroke-linejoin:round;stroke-opacity:1;stop-color:#000000"
       d="m 0.39687501,1.8520834 c 0,0 0.26458334,-0.1322917 0.66145839,-0.1322917 0.396875,0 1.0583333,0.396875 1.0583333,0.396875 0,0 0.6614584,-0.396875 1.0583333,-0.396875 0.3968751,0 0.6614584,0.1322917 0.6614584,0.1322917"
       id="path22973"
       sodipodi:nodetypes="cscsc" />
    <path
       style="fill:none;fill-opacity:1;stroke:#f4e3d7;stroke-width:0.264583;stroke-linecap:round;stroke-linejoin:round;stroke-opacity:1;stop-color:#000000"
       d="m 0.52916668,2.7781251 c 0,0 0.26458334,-0.396875 0.39687501,-0.5291667"
       id="path22973-0"
       sodipodi:nodetypes="cc" />
    <path
       style="fill:none;fill-opacity:1;stroke:#f4e3d7;stroke-width:0.264583;stroke-linecap:round;stroke-linejoin:round;stroke-opacity:1;stop-color:#000000"
       d="m 3.7041668,2.7781251 c 0,0 -0.2645833,-0.396875 -0.396875,-0.5291667"
       id="path22973-0-9"
       sodipodi:nodetypes="cc" />
    <path
       style="fill:none;fill-opacity:1;stroke:#000000;stroke-width:0.264583;stroke-linecap:round;stroke-linejoin:round;stroke-opacity:1;stop-color:#000000"
       d="m 1.9843751,0.13229167 0,2.24895843"
       id="path4646"
       sodipodi:nodetypes="cc" />
    <path
       style="fill:none;fill-opacity:1;stroke:#ff8080;stroke-width:0.264583;stroke-linecap:round;stroke-linejoin:round;stroke-opacity:1;stop-color:#000000"
       d="m 2.2489584,0.39687501 0,0.66145839"
       id="path20626"
       sodipodi:nodetypes="cc" />
    <path
       style="fill:#ffd5d5;fill-opacity:1;stroke:#ff5555;stroke-width:0.264583;stroke-linecap:round;stroke-linejoin:round;stroke-opacity:1;stop-color:#000000"
       d="m 2.6458334,0.79375002 0,0.26458338"
       id="path20661"
       sodipodi:nodetypes="cc" />
    <path
       style="fill:#000000;fill-opacity:1;stroke:#ff2a2a;stroke-width:0.264583;stroke-linecap:round;stroke-linejoin:round;stroke-opacity:1;stop-color:#000000"
       d="m 3.0427084,0.92604169 0,0.13229171"
       id="path20661-2"
       sodipodi:nodetypes="cc" />
  </g>
</svg>
